<svg version="1.1" id="Layer_1" xmlns="http://www.w3.org/2000/svg" xmlns:xlink="http://www.w3.org/1999/xlink" x="0px" y="0px"
	 width="100%" viewBox="0 0 3166 337" enable-background="new 0 0 3166 337" xml:space="preserve">
<path fill="#FFFFFF" opacity="1.000000" stroke="none" 
	d="
M1.000000,311.000000 
	C1.000000,207.785461 1.000000,104.570930 1.000000,1.000000 
	C14.030564,1.000000 27.064377,1.000000 40.381050,1.380034 
	C39.506680,1.840118 38.343498,1.870435 37.193180,2.008180 
	C28.893728,3.002005 18.491976,7.263957 16.511152,15.200848 
	C14.539313,23.101740 15.897913,31.018198 21.138187,37.501160 
	C27.642412,45.547802 34.553684,53.277122 41.514732,60.938534 
	C45.879539,65.742493 50.559193,70.275139 55.275951,74.741135 
	C62.509937,81.590538 69.451958,88.857483 77.319603,94.904053 
	C90.660484,105.156998 105.827347,112.535393 121.741684,117.655167 
	C133.862656,121.554581 146.623413,125.302773 159.193100,125.641037 
	C205.251984,126.880531 251.349487,126.812576 297.433350,126.971642 
	C418.331268,127.388954 539.229614,127.667770 660.127808,127.997345 
	C667.625916,128.017792 675.135803,128.257599 682.618652,127.918793 
	C688.643250,127.646011 694.836975,127.395332 700.601685,125.830582 
	C714.577026,122.037071 722.364380,113.944420 716.062500,97.780464 
	C713.654541,91.604294 709.388489,85.920326 705.057007,80.780777 
	C698.554077,73.064629 691.390503,65.882782 684.245422,58.736179 
	C676.114990,50.603992 668.164185,42.187656 659.288452,34.930630 
	C647.149902,25.005945 632.936829,18.501766 618.384155,12.700427 
	C597.572815,4.404083 575.984619,1.479251 553.832153,3.189471 
	C547.011353,3.716053 540.093079,5.735332 533.687317,8.258801 
	C523.196777,12.391417 524.372498,20.777205 530.401855,26.093773 
	C537.795044,32.612888 544.250305,40.117294 548.000610,49.439163 
	C548.779663,51.375576 549.241455,54.543613 548.211548,55.783024 
	C547.246033,56.945015 543.789734,57.067272 541.991577,56.310860 
	C536.953857,54.191776 531.811523,51.925247 527.425720,48.733875 
	C517.798767,41.728664 509.069122,33.424667 499.154999,26.892733 
	C475.914459,11.580770 451.375946,-0.336855 422.225861,2.990687 
	C416.452393,3.649738 410.660614,5.477208 408.388397,10.819849 
	C406.233948,15.885665 410.327057,20.028959 414.010681,23.518717 
	C415.582550,25.007856 417.336975,26.394823 418.563202,28.140903 
	C421.914551,32.913120 425.362152,37.676193 428.068085,42.813461 
	C429.101807,44.775932 429.112427,48.389305 427.917633,50.041523 
	C427.051361,51.239449 423.000092,51.318810 421.120636,50.384720 
	C414.601288,47.144695 407.958069,43.841568 402.186249,39.473377 
	C389.358459,29.765156 377.443817,18.933554 362.076324,12.905947 
	C342.395386,5.186505 322.513855,-0.625121 301.129791,3.110743 
	C296.165894,3.977952 290.367035,5.027843 288.327667,10.569137 
	C286.323822,16.014006 289.434692,20.310673 293.411407,23.951515 
	C295.621338,25.974768 298.009338,27.934126 299.715759,30.347477 
	C302.588318,34.410130 305.340912,38.646477 307.409058,43.147446 
	C308.295990,45.077682 307.995667,48.228142 306.936371,50.082455 
	C306.435333,50.959499 302.760010,50.516018 300.728210,49.942947 
	C290.277435,46.995308 282.328552,39.909069 273.932831,33.512737 
	C266.952576,28.194792 260.017090,22.674982 252.451569,18.299850 
	C239.030182,10.538314 224.268173,5.791899 209.066956,3.240149 
	C196.768494,1.175670 184.152390,0.400379 171.866943,4.077805 
	C160.719986,7.414443 159.272705,16.234035 167.248856,23.812487 
	C174.757507,30.946749 181.956863,38.438793 185.941559,48.235207 
	C186.767471,50.265785 186.197281,52.864231 186.270538,55.200962 
	C184.085434,55.223839 181.460480,56.049564 179.789459,55.134090 
	C171.441879,50.560780 162.680893,46.360340 155.313934,40.467724 
	C144.091812,31.491472 133.158585,22.491337 119.686653,16.835173 
	C103.738197,10.139242 87.400581,5.231030 70.254242,2.977485 
	C66.153694,2.438549 62.083927,1.665418 58.000000,1.000000 
	C1094.333374,1.000000 2130.666748,1.000000 3167.000000,1.000000 
	C3167.000000,58.112148 3167.000000,115.105171 3166.664551,172.441650 
	C3163.465088,169.509415 3161.216064,165.033752 3157.618164,163.189087 
	C3147.878418,158.195541 3137.752197,153.800339 3127.445068,150.098190 
	C3097.013428,139.167786 3066.430420,128.657791 3035.887451,118.038231 
	C3004.123535,106.994141 2972.327637,96.042336 2940.563477,84.998314 
	C2910.020508,74.378754 2879.512695,63.658993 2848.967529,53.046032 
	C2821.171387,43.388184 2793.341797,33.825653 2765.534668,24.199175 
	C2750.731934,19.074654 2736.040039,13.329616 2719.894043,15.023251 
	C2708.515381,16.216839 2698.473877,20.057457 2693.381348,31.275955 
	C2687.743896,43.693882 2692.168213,55.300072 2697.901855,66.199203 
	C2703.980957,77.754669 2712.495850,87.614799 2723.033447,95.413918 
	C2729.540039,100.229652 2736.238281,105.015671 2743.459473,108.583008 
	C2754.321045,113.948982 2765.711182,118.247200 2776.885498,122.978775 
	C2792.232178,129.477142 2807.671143,135.767487 2822.909912,142.509399 
	C2833.093262,147.014679 2843.325439,151.584167 2852.944336,157.147202 
	C2864.927246,164.077393 2866.228516,175.929642 2859.747070,185.215485 
	C2857.237793,188.810104 2853.173096,191.720703 2849.220459,193.819855 
	C2841.675537,197.826935 2833.758545,201.158737 2825.894775,204.535294 
	C2811.327881,210.790131 2796.610840,216.700027 2782.099854,223.079544 
	C2766.847168,229.784897 2751.172363,235.832962 2736.739990,244.030685 
	C2713.853760,257.029907 2696.965332,275.596100 2691.348145,302.367950 
	C2689.436768,311.478088 2692.748047,325.443237 2702.416504,330.770630 
	C2707.675537,333.668335 2713.455078,335.621063 2719.000000,338.000031 
	C1875.967285,338.000000 1032.934570,338.000000 189.576736,337.625458 
	C189.766235,336.862152 190.226822,336.264618 190.803360,336.115540 
	C201.398972,333.375397 212.226868,331.333679 222.561493,327.833069 
	C236.466537,323.123108 248.709366,315.373779 260.037933,305.803223 
	C267.494720,299.503632 276.342926,294.782501 284.854065,289.847748 
	C286.979248,288.615570 290.209015,289.288483 292.942078,289.063049 
	C292.953094,289.040344 292.907410,289.060242 293.077423,289.416199 
	C293.220490,292.514496 293.193573,295.256866 293.015564,298.322144 
	C289.757660,302.745605 286.714813,306.896790 283.523102,310.930206 
	C281.099396,313.993073 278.486267,316.906036 275.620483,320.044159 
	C271.859192,326.484406 272.861572,330.890167 279.224274,333.503510 
	C283.641449,335.317719 288.523651,336.514771 293.283966,336.885895 
	C310.535034,338.230988 327.089569,334.913025 343.090881,328.465210 
	C355.036682,323.651642 366.185059,317.723663 376.303345,309.489380 
	C385.077423,302.348999 394.834045,296.355133 404.500122,290.413696 
	C406.980286,288.889221 410.758179,289.475983 413.963898,289.052612 
	C413.987915,289.012451 413.907410,289.060242 414.077423,289.416199 
	C414.220520,292.514496 414.193573,295.256866 414.015442,298.320190 
	C408.553436,304.956238 403.186646,311.225647 397.971558,317.618835 
	C396.689117,319.191040 395.901398,321.166748 394.541534,323.162781 
	C393.743774,330.784485 395.092377,332.702576 402.324768,335.080414 
	C411.809937,338.198914 421.435822,337.572388 431.034210,335.973846 
	C447.861389,333.171478 463.575073,327.070465 477.658722,317.617828 
	C491.017029,308.652069 503.436920,298.298248 516.643127,289.090820 
	C521.677551,285.580780 527.166077,281.686920 534.239258,283.575073 
	C534.316101,283.688477 534.543823,283.840729 534.734802,284.157043 
	C535.006042,285.982239 535.086304,287.491119 535.011902,289.327179 
	C530.053467,298.795654 524.155945,307.037964 516.033508,313.617584 
	C514.529541,314.835815 513.912598,317.149078 512.538940,319.166901 
	C510.669067,325.654205 513.679321,329.708618 519.208069,331.520508 
	C526.086609,333.774750 533.154114,336.249725 540.280762,336.797577 
	C560.209656,338.329437 579.978027,336.592773 598.865845,329.543854 
	C624.394531,320.016510 648.095520,307.562225 666.267151,286.360138 
	C672.937195,278.577759 680.737732,271.760864 687.360718,263.942780 
	C692.791138,257.532471 697.874451,250.644485 701.956482,243.324097 
	C706.562622,235.063660 704.812683,226.065109 698.902527,220.565857 
	C691.911133,214.932510 683.994751,213.005005 675.499329,213.004700 
	C499.238281,212.998474 322.977173,212.955276 146.716339,213.146622 
	C138.816498,213.155197 130.739990,214.614975 123.057747,216.603836 
	C107.218010,220.704651 91.646767,225.936600 77.758972,234.821091 
	C68.056206,241.028259 58.245388,247.395905 49.761932,255.100296 
	C37.862938,265.906494 26.965649,277.848358 16.026894,289.662781 
	C11.771844,294.258453 8.569685,299.828949 4.601052,305.079163 
	C4.265012,305.801697 4.215839,306.400482 4.030286,307.303101 
	C3.560061,308.388397 3.226218,309.169922 2.626499,310.041931 
	C1.907083,310.421600 1.453542,310.710815 1.000000,311.000000 
M1488.500000,149.000000 
	C1470.740845,148.666672 1452.981689,148.051300 1435.222412,148.043762 
	C1263.400879,147.970856 1091.579346,148.001053 919.757751,147.998505 
	C901.071899,147.998215 895.313416,165.848450 900.389587,179.529526 
	C903.935486,189.086319 911.856262,193.050766 922.140625,193.049835 
	C1535.765259,192.994156 2149.389893,193.000000 2763.014404,193.000000 
	C2763.681152,193.000000 2764.348145,193.017319 2765.014404,192.997452 
	C2779.167969,192.575272 2790.129395,179.885117 2785.028564,164.664703 
	C2781.354492,153.701889 2774.534424,150.112061 2762.196289,150.086685 
	C2542.116943,149.633942 2322.037598,149.212982 2101.958008,149.035172 
	C1897.805420,148.870239 1693.652710,149.000000 1488.500000,149.000000 
M651.500000,199.000000 
	C673.331787,199.000000 695.165466,199.169083 716.994690,198.931503 
	C728.601501,198.805191 739.594971,195.745285 748.839111,188.498856 
	C756.627930,182.393356 760.459290,171.496246 753.590637,162.029907 
	C745.386719,150.723251 733.211426,146.847168 720.443298,146.230133 
	C696.889099,145.091858 673.269226,145.224579 649.675049,145.022858 
	C601.750916,144.613129 553.825684,144.332932 505.900879,144.000153 
	C457.809418,143.666245 409.718292,143.274780 361.626465,143.013809 
	C290.370148,142.627136 219.113297,142.338974 147.856766,141.994461 
	C135.947083,141.936874 124.817787,144.746735 115.493843,152.281937 
	C105.077721,160.699799 102.345802,174.119858 112.578026,185.139877 
	C122.077919,195.371155 134.337662,198.894958 147.533203,198.906174 
	C315.188721,199.048660 482.844360,199.000000 651.500000,199.000000 
M837.000244,179.107147 
	C838.467102,188.744461 843.038330,196.141571 853.141235,197.901245 
	C859.889282,199.076599 866.906860,198.836853 873.808777,198.964386 
	C883.574890,199.144806 892.360229,192.589432 893.822388,184.191223 
	C895.081726,176.957260 894.831726,169.435455 894.959351,162.035919 
	C895.117188,152.889099 890.023804,145.012070 881.089111,143.222519 
	C873.435852,141.689636 865.351013,142.177155 857.452393,142.038498 
	C848.292786,141.877670 839.539062,148.543777 838.134216,157.509354 
	C837.071228,164.292999 837.329651,171.283691 837.000244,179.107147 
M811.995361,197.967529 
	C819.351318,195.018829 824.588867,189.611069 825.700500,181.983643 
	C826.792786,174.488647 826.997620,166.529327 825.701599,159.103668 
	C823.969849,149.181198 816.012939,141.200638 804.793457,141.942215 
	C799.656860,142.281754 794.479248,141.999832 789.320190,142.000046 
	C779.314453,142.000458 771.156738,147.151443 769.236328,157.080933 
	C767.674500,165.156631 767.934265,173.806610 768.768616,182.062210 
	C769.628479,190.570312 775.371155,196.687469 783.766724,197.753799 
	C792.762085,198.896301 802.016113,198.003296 811.995361,197.967529 
M2804.619385,152.855698 
	C2802.011475,154.475311 2798.835693,155.594269 2796.891113,157.798981 
	C2787.152100,168.841766 2790.928711,185.710999 2803.866943,191.069717 
	C2812.698242,194.727524 2826.669189,193.120865 2832.733887,186.685150 
	C2838.248535,180.833466 2839.339844,173.535019 2837.447510,166.096252 
	C2835.531738,158.564835 2830.112793,153.502975 2822.568359,152.225220 
	C2816.947998,151.273315 2811.008301,152.204987 2804.619385,152.855698 
z"/>
<path fill="#2E3192" opacity="1.000000" stroke="none" 
	d="
M2719.460693,338.000031 
	C2713.455078,335.621063 2707.675537,333.668335 2702.416504,330.770630 
	C2692.748047,325.443237 2689.436768,311.478088 2691.348145,302.367950 
	C2696.965332,275.596100 2713.853760,257.029907 2736.739990,244.030685 
	C2751.172363,235.832962 2766.847168,229.784897 2782.099854,223.079544 
	C2796.610840,216.700027 2811.327881,210.790131 2825.894775,204.535294 
	C2833.758545,201.158737 2841.675537,197.826935 2849.220459,193.819855 
	C2853.173096,191.720703 2857.237793,188.810104 2859.747070,185.215485 
	C2866.228516,175.929642 2864.927246,164.077393 2852.944336,157.147202 
	C2843.325439,151.584167 2833.093262,147.014679 2822.909912,142.509399 
	C2807.671143,135.767487 2792.232178,129.477142 2776.885498,122.978775 
	C2765.711182,118.247200 2754.321045,113.948982 2743.459473,108.583008 
	C2736.238281,105.015671 2729.540039,100.229652 2723.033447,95.413918 
	C2712.495850,87.614799 2703.980957,77.754669 2697.901855,66.199203 
	C2692.168213,55.300072 2687.743896,43.693882 2693.381348,31.275955 
	C2698.473877,20.057457 2708.515381,16.216839 2719.894043,15.023251 
	C2736.040039,13.329616 2750.731934,19.074654 2765.534668,24.199175 
	C2793.341797,33.825653 2821.171387,43.388184 2848.967529,53.046032 
	C2879.512695,63.658993 2910.020508,74.378754 2940.563477,84.998314 
	C2972.327637,96.042336 3004.123535,106.994141 3035.887451,118.038231 
	C3066.430420,128.657791 3097.013428,139.167786 3127.445068,150.098190 
	C3137.752197,153.800339 3147.878418,158.195541 3157.618164,163.189087 
	C3161.216064,165.033752 3163.465088,169.509415 3166.664551,172.892563 
	C3167.000000,175.041672 3167.000000,177.083328 3166.661133,179.655701 
	C3163.259766,187.358505 3157.119141,191.259155 3150.371582,193.797928 
	C3131.763428,200.799103 3112.991943,207.368317 3094.248047,214.004120 
	C3071.535889,222.044708 3048.802490,230.027054 3026.047852,237.946487 
	C2994.284424,249.001343 2962.485352,259.954498 2930.715088,270.989532 
	C2907.802979,278.947723 2884.938232,287.042145 2862.007080,294.944458 
	C2824.858887,307.746124 2787.699463,320.517365 2750.478271,333.104248 
	C2744.156494,335.241943 2737.501221,336.393036 2731.000000,338.000000 
	C2727.307129,338.000000 2723.614258,338.000000 2719.460693,338.000031 
z"/>
<path fill="#2E3192" opacity="1.000000" stroke="none" 
	d="
M57.532394,1.000000 
	C62.083927,1.665418 66.153694,2.438549 70.254242,2.977485 
	C87.400581,5.231030 103.738197,10.139242 119.686653,16.835173 
	C133.158585,22.491337 144.091812,31.491472 155.313934,40.467724 
	C162.680893,46.360340 171.441879,50.560780 179.789459,55.134090 
	C181.460480,56.049564 184.085434,55.223839 186.270538,55.200962 
	C186.197281,52.864231 186.767471,50.265785 185.941559,48.235207 
	C181.956863,38.438793 174.757507,30.946749 167.248856,23.812487 
	C159.272705,16.234035 160.719986,7.414443 171.866943,4.077805 
	C184.152390,0.400379 196.768494,1.175670 209.066956,3.240149 
	C224.268173,5.791899 239.030182,10.538314 252.451569,18.299850 
	C260.017090,22.674982 266.952576,28.194792 273.932831,33.512737 
	C282.328552,39.909069 290.277435,46.995308 300.728210,49.942947 
	C302.760010,50.516018 306.435333,50.959499 306.936371,50.082455 
	C307.995667,48.228142 308.295990,45.077682 307.409058,43.147446 
	C305.340912,38.646477 302.588318,34.410130 299.715759,30.347477 
	C298.009338,27.934126 295.621338,25.974768 293.411407,23.951515 
	C289.434692,20.310673 286.323822,16.014006 288.327667,10.569137 
	C290.367035,5.027843 296.165894,3.977952 301.129791,3.110743 
	C322.513855,-0.625121 342.395386,5.186505 362.076324,12.905947 
	C377.443817,18.933554 389.358459,29.765156 402.186249,39.473377 
	C407.958069,43.841568 414.601288,47.144695 421.120636,50.384720 
	C423.000092,51.318810 427.051361,51.239449 427.917633,50.041523 
	C429.112427,48.389305 429.101807,44.775932 428.068085,42.813461 
	C425.362152,37.676193 421.914551,32.913120 418.563202,28.140903 
	C417.336975,26.394823 415.582550,25.007856 414.010681,23.518717 
	C410.327057,20.028959 406.233948,15.885665 408.388397,10.819849 
	C410.660614,5.477208 416.452393,3.649738 422.225861,2.990687 
	C451.375946,-0.336855 475.914459,11.580770 499.154999,26.892733 
	C509.069122,33.424667 517.798767,41.728664 527.425720,48.733875 
	C531.811523,51.925247 536.953857,54.191776 541.991577,56.310860 
	C543.789734,57.067272 547.246033,56.945015 548.211548,55.783024 
	C549.241455,54.543613 548.779663,51.375576 548.000610,49.439163 
	C544.250305,40.117294 537.795044,32.612888 530.401855,26.093773 
	C524.372498,20.777205 523.196777,12.391417 533.687317,8.258801 
	C540.093079,5.735332 547.011353,3.716053 553.832153,3.189471 
	C575.984619,1.479251 597.572815,4.404083 618.384155,12.700427 
	C632.936829,18.501766 647.149902,25.005945 659.288452,34.930630 
	C668.164185,42.187656 676.114990,50.603992 684.245422,58.736179 
	C691.390503,65.882782 698.554077,73.064629 705.057007,80.780777 
	C709.388489,85.920326 713.654541,91.604294 716.062500,97.780464 
	C722.364380,113.944420 714.577026,122.037071 700.601685,125.830582 
	C694.836975,127.395332 688.643250,127.646011 682.618652,127.918793 
	C675.135803,128.257599 667.625916,128.017792 660.127808,127.997345 
	C539.229614,127.667770 418.331268,127.388954 297.433350,126.971642 
	C251.349487,126.812576 205.251984,126.880531 159.193100,125.641037 
	C146.623413,125.302773 133.862656,121.554581 121.741684,117.655167 
	C105.827347,112.535393 90.660484,105.156998 77.319603,94.904053 
	C69.451958,88.857483 62.509937,81.590538 55.275951,74.741135 
	C50.559193,70.275139 45.879539,65.742493 41.514732,60.938534 
	C34.553684,53.277122 27.642412,45.547802 21.138187,37.501160 
	C15.897913,31.018198 14.539313,23.101740 16.511152,15.200848 
	C18.491976,7.263957 28.893728,3.002005 37.193180,2.008180 
	C38.343498,1.870435 39.506680,1.840118 40.831955,1.380034 
	C46.354931,1.000000 51.709858,1.000000 57.532394,1.000000 
z"/>
<path fill="#FFFFFF" opacity="1.000000" stroke="none" 
	d="
M2731.468750,338.000000 
	C2737.501221,336.393036 2744.156494,335.241943 2750.478271,333.104248 
	C2787.699463,320.517365 2824.858887,307.746124 2862.007080,294.944458 
	C2884.938232,287.042145 2907.802979,278.947723 2930.715088,270.989532 
	C2962.485352,259.954498 2994.284424,249.001343 3026.047852,237.946487 
	C3048.802490,230.027054 3071.535889,222.044708 3094.248047,214.004120 
	C3112.991943,207.368317 3131.763428,200.799103 3150.371582,193.797928 
	C3157.119141,191.259155 3163.259766,187.358505 3166.661133,180.093201 
	C3167.000000,232.627853 3167.000000,285.255707 3167.000000,338.000000 
	C3021.979248,338.000000 2876.958252,338.000000 2731.468750,338.000000 
z"/>
<path fill="#FFFFFF" opacity="1.000000" stroke="none" 
	d="
M175.000000,338.000000 
	C116.999985,338.000000 58.999969,338.000000 1.000000,338.000000 
	C1.000000,333.256592 1.000000,328.600952 1.336949,323.563965 
	C7.027767,332.530121 15.865382,336.247528 25.869320,336.877014 
	C41.158287,337.839111 56.366566,336.617615 71.337509,333.012665 
	C90.138367,328.485504 108.484673,322.675690 124.577225,311.648041 
	C134.898209,304.575378 144.307510,296.169037 154.653488,289.137390 
	C159.760818,285.666138 165.252136,281.117554 172.524139,283.815552 
	C172.540741,283.801331 172.543808,283.840729 172.734833,284.157043 
	C173.006119,285.982239 173.086380,287.491119 173.011948,289.327179 
	C167.419907,297.042755 161.995499,304.440704 156.539474,311.815338 
	C154.022324,315.217621 151.443344,318.574127 148.554840,322.144348 
	C148.448639,324.052155 148.427307,325.849518 148.955811,327.467285 
	C151.069778,333.938263 157.103455,334.561157 162.412735,335.922455 
	C166.516296,336.974548 170.797684,337.333099 175.000000,338.000000 
z"/>
<path fill="#2E3192" opacity="1.000000" stroke="none" 
	d="
M172.507523,283.829773 
	C165.252136,281.117554 159.760818,285.666138 154.653488,289.137390 
	C144.307510,296.169037 134.898209,304.575378 124.577225,311.648041 
	C108.484673,322.675690 90.138367,328.485504 71.337509,333.012665 
	C56.366566,336.617615 41.158287,337.839111 25.869320,336.877014 
	C15.865382,336.247528 7.027767,332.530121 1.336949,323.091309 
	C1.000000,319.307098 1.000000,315.614166 1.000000,311.460632 
	C1.453542,310.710815 1.907083,310.421600 2.958692,310.210999 
	C3.787715,311.760956 4.391871,313.287750 4.183154,314.693878 
	C3.400014,319.969940 5.294418,326.372467 9.265218,327.724548 
	C15.768706,329.939026 22.557106,332.647278 29.243761,332.697540 
	C40.759243,332.784149 52.469463,331.934937 63.773712,329.778595 
	C85.060310,325.718201 105.627121,319.136658 123.493675,306.215790 
	C133.013412,299.331207 141.927383,291.566040 151.725616,285.127991 
	C156.505203,281.987518 162.596878,280.654480 168.262268,279.123810 
	C171.572632,278.229401 173.190079,280.351837 172.507523,283.829773 
z"/>
<path fill="#2E3192" opacity="1.000000" stroke="none" 
	d="
M175.464645,338.000000 
	C170.797684,337.333099 166.516296,336.974548 162.412735,335.922455 
	C157.103455,334.561157 151.069778,333.938263 148.955811,327.467285 
	C148.427307,325.849518 148.448639,324.052155 148.881317,322.309631 
	C150.991486,328.271179 155.637131,331.027527 160.958374,331.675323 
	C168.998276,332.654053 177.337234,333.804474 185.251404,332.716461 
	C213.964081,328.769318 239.769409,318.014557 261.511841,298.177856 
	C268.622131,291.690765 276.996460,286.723999 286.559814,284.303497 
	C290.604736,283.279724 293.155609,284.363861 292.931091,289.085785 
	C290.209015,289.288483 286.979248,288.615570 284.854065,289.847748 
	C276.342926,294.782501 267.494720,299.503632 260.037933,305.803223 
	C248.709366,315.373779 236.466537,323.123108 222.561493,327.833069 
	C212.226868,331.333679 201.398972,333.375397 190.803360,336.115540 
	C190.226822,336.264618 189.766235,336.862152 189.125824,337.625458 
	C184.643097,338.000000 180.286194,338.000000 175.464645,338.000000 
z"/>
<path fill="#2E3192" opacity="1.000000" stroke="none" 
	d="
M1489.000000,149.000000 
	C1693.652710,149.000000 1897.805420,148.870239 2101.958008,149.035172 
	C2322.037598,149.212982 2542.116943,149.633942 2762.196289,150.086685 
	C2774.534424,150.112061 2781.354492,153.701889 2785.028564,164.664703 
	C2790.129395,179.885117 2779.167969,192.575272 2765.014404,192.997452 
	C2764.348145,193.017319 2763.681152,193.000000 2763.014404,193.000000 
	C2149.389893,193.000000 1535.765259,192.994156 922.140625,193.049835 
	C911.856262,193.050766 903.935486,189.086319 900.389587,179.529526 
	C895.313416,165.848450 901.071899,147.998215 919.757751,147.998505 
	C1091.579346,148.001053 1263.400879,147.970856 1435.222412,148.043762 
	C1452.981689,148.051300 1470.740845,148.666672 1489.000000,149.000000 
z"/>
<path fill="#2E3192" opacity="1.000000" stroke="none" 
	d="
M292.942078,289.063049 
	C293.155609,284.363861 290.604736,283.279724 286.559814,284.303497 
	C276.996460,286.723999 268.622131,291.690765 261.511841,298.177856 
	C239.769409,318.014557 213.964081,328.769318 185.251404,332.716461 
	C177.337234,333.804474 168.998276,332.654053 160.958374,331.675323 
	C155.637131,331.027527 150.991486,328.271179 149.218903,322.116699 
	C151.443344,318.574127 154.022324,315.217621 156.539474,311.815338 
	C161.995499,304.440704 167.419907,297.042755 173.359650,289.277069 
	C174.405258,287.619904 174.948486,286.339996 175.491730,285.060089 
	C174.509079,284.653656 173.526443,284.247192 172.543808,283.840729 
	C172.543808,283.840729 172.540741,283.801331 172.524139,283.815552 
	C173.190079,280.351837 171.572632,278.229401 168.262268,279.123810 
	C162.596878,280.654480 156.505203,281.987518 151.725616,285.127991 
	C141.927383,291.566040 133.013412,299.331207 123.493675,306.215790 
	C105.627121,319.136658 85.060310,325.718201 63.773712,329.778595 
	C52.469463,331.934937 40.759243,332.784149 29.243761,332.697540 
	C22.557106,332.647278 15.768706,329.939026 9.265218,327.724548 
	C5.294418,326.372467 3.400014,319.969940 4.183154,314.693878 
	C4.391871,313.287750 3.787715,311.760956 3.224567,310.120483 
	C3.226218,309.169922 3.560061,308.388397 4.316761,307.261047 
	C4.789052,306.261902 4.838486,305.608673 4.887920,304.955414 
	C8.569685,299.828949 11.771844,294.258453 16.026894,289.662781 
	C26.965649,277.848358 37.862938,265.906494 49.761932,255.100296 
	C58.245388,247.395905 68.056206,241.028259 77.758972,234.821091 
	C91.646767,225.936600 107.218010,220.704651 123.057747,216.603836 
	C130.739990,214.614975 138.816498,213.155197 146.716339,213.146622 
	C322.977173,212.955276 499.238281,212.998474 675.499329,213.004700 
	C683.994751,213.005005 691.911133,214.932510 698.898682,220.995514 
	C702.222046,234.357544 698.512207,244.885651 689.562622,253.990128 
	C683.741943,259.911591 678.314453,266.220917 672.467529,272.115112 
	C662.571533,282.091125 653.610474,293.485687 642.261169,301.435638 
	C609.902283,324.102509 574.312134,337.691528 533.819336,331.789246 
	C526.112671,330.665924 516.328003,330.864990 514.091125,319.778381 
	C514.022339,319.437408 513.302551,319.227783 512.886292,318.956940 
	C513.912598,317.149078 514.529541,314.835815 516.033508,313.617584 
	C524.155945,307.037964 530.053467,298.795654 535.359619,289.277039 
	C536.405273,287.619873 536.948547,286.339966 537.491821,285.060089 
	C536.509155,284.653625 535.526489,284.247192 534.543823,283.840729 
	C534.543823,283.840729 534.316101,283.688477 534.458740,283.207489 
	C534.763367,279.889313 533.227112,278.662933 530.621765,279.048218 
	C527.380615,279.527496 523.853027,279.691040 521.045349,281.143402 
	C515.170837,284.182129 509.364655,287.550934 504.103973,291.540497 
	C489.072235,302.940216 475.104187,315.753357 457.209869,323.018585 
	C442.148163,329.133820 426.969330,334.336761 410.478363,332.858459 
	C404.745331,332.344513 397.602509,332.716675 396.385406,324.170074 
	C396.319061,323.703979 395.405487,323.358551 394.886230,322.956940 
	C395.901398,321.166748 396.689117,319.191040 397.971558,317.618835 
	C403.186646,311.225647 408.553436,304.956238 414.353058,298.251282 
	C419.078369,291.246704 418.986328,290.379913 413.907410,289.060242 
	C413.907410,289.060242 413.987915,289.012451 413.975769,288.653503 
	C413.800293,284.032745 411.021454,283.117188 407.791290,284.315002 
	C402.536316,286.263641 397.066162,288.158447 392.470978,291.243896 
	C384.378754,296.677429 376.954041,303.094299 369.112579,308.914520 
	C355.192291,319.246735 339.450500,325.678375 322.787384,330.015228 
	C310.622314,333.181458 298.315735,334.189209 285.863007,331.961487 
	C277.004395,330.376709 275.244385,328.183258 275.957428,319.885712 
	C278.486267,316.906036 281.099396,313.993073 283.523102,310.930206 
	C286.714813,306.896790 289.757660,302.745605 293.353180,298.253235 
	C298.078369,291.246704 297.986328,290.379913 292.907410,289.060242 
	C292.907410,289.060242 292.953094,289.040344 292.942078,289.063049 
z"/>
<path fill="#2E3192" opacity="1.000000" stroke="none" 
	d="
M651.000000,199.000000 
	C482.844360,199.000000 315.188721,199.048660 147.533203,198.906174 
	C134.337662,198.894958 122.077919,195.371155 112.578026,185.139877 
	C102.345802,174.119858 105.077721,160.699799 115.493843,152.281937 
	C124.817787,144.746735 135.947083,141.936874 147.856766,141.994461 
	C219.113297,142.338974 290.370148,142.627136 361.626465,143.013809 
	C409.718292,143.274780 457.809418,143.666245 505.900879,144.000153 
	C553.825684,144.332932 601.750916,144.613129 649.675049,145.022858 
	C673.269226,145.224579 696.889099,145.091858 720.443298,146.230133 
	C733.211426,146.847168 745.386719,150.723251 753.590637,162.029907 
	C760.459290,171.496246 756.627930,182.393356 748.839111,188.498856 
	C739.594971,195.745285 728.601501,198.805191 716.994690,198.931503 
	C695.165466,199.169083 673.331787,199.000000 651.000000,199.000000 
z"/>
<path fill="#2E3192" opacity="1.000000" stroke="none" 
	d="
M837.000122,178.644699 
	C837.329651,171.283691 837.071228,164.292999 838.134216,157.509354 
	C839.539062,148.543777 848.292786,141.877670 857.452393,142.038498 
	C865.351013,142.177155 873.435852,141.689636 881.089111,143.222519 
	C890.023804,145.012070 895.117188,152.889099 894.959351,162.035919 
	C894.831726,169.435455 895.081726,176.957260 893.822388,184.191223 
	C892.360229,192.589432 883.574890,199.144806 873.808777,198.964386 
	C866.906860,198.836853 859.889282,199.076599 853.141235,197.901245 
	C843.038330,196.141571 838.467102,188.744461 837.000122,178.644699 
z"/>
<path fill="#2E3192" opacity="1.000000" stroke="none" 
	d="
M811.576294,197.983093 
	C802.016113,198.003296 792.762085,198.896301 783.766724,197.753799 
	C775.371155,196.687469 769.628479,190.570312 768.768616,182.062210 
	C767.934265,173.806610 767.674500,165.156631 769.236328,157.080933 
	C771.156738,147.151443 779.314453,142.000458 789.320190,142.000046 
	C794.479248,141.999832 799.656860,142.281754 804.793457,141.942215 
	C816.012939,141.200638 823.969849,149.181198 825.701599,159.103668 
	C826.997620,166.529327 826.792786,174.488647 825.700500,181.983643 
	C824.588867,189.611069 819.351318,195.018829 811.576294,197.983093 
z"/>
<path fill="#2E3192" opacity="1.000000" stroke="none" 
	d="
M2804.915039,152.576752 
	C2811.008301,152.204987 2816.947998,151.273315 2822.568359,152.225220 
	C2830.112793,153.502975 2835.531738,158.564835 2837.447510,166.096252 
	C2839.339844,173.535019 2838.248535,180.833466 2832.733887,186.685150 
	C2826.669189,193.120865 2812.698242,194.727524 2803.866943,191.069717 
	C2790.928711,185.710999 2787.152100,168.841766 2796.891113,157.798981 
	C2798.835693,155.594269 2802.011475,154.475311 2804.915039,152.576752 
z"/>
<path fill="#2E3192" opacity="1.000000" stroke="none" 
	d="
M512.538940,319.166901 
	C513.302551,319.227783 514.022339,319.437408 514.091125,319.778381 
	C516.328003,330.864990 526.112671,330.665924 533.819336,331.789246 
	C574.312134,337.691528 609.902283,324.102509 642.261169,301.435638 
	C653.610474,293.485687 662.571533,282.091125 672.467529,272.115112 
	C678.314453,266.220917 683.741943,259.911591 689.562622,253.990128 
	C698.512207,244.885651 702.222046,234.357544 699.038452,221.315018 
	C704.812683,226.065109 706.562622,235.063660 701.956482,243.324097 
	C697.874451,250.644485 692.791138,257.532471 687.360718,263.942780 
	C680.737732,271.760864 672.937195,278.577759 666.267151,286.360138 
	C648.095520,307.562225 624.394531,320.016510 598.865845,329.543854 
	C579.978027,336.592773 560.209656,338.329437 540.280762,336.797577 
	C533.154114,336.249725 526.086609,333.774750 519.208069,331.520508 
	C513.679321,329.708618 510.669067,325.654205 512.538940,319.166901 
z"/>
<path fill="#2E3192" opacity="1.000000" stroke="none" 
	d="
M394.541565,323.162781 
	C395.405487,323.358551 396.319061,323.703979 396.385406,324.170074 
	C397.602509,332.716675 404.745331,332.344513 410.478363,332.858459 
	C426.969330,334.336761 442.148163,329.133820 457.209869,323.018585 
	C475.104187,315.753357 489.072235,302.940216 504.103973,291.540497 
	C509.364655,287.550934 515.170837,284.182129 521.045349,281.143402 
	C523.853027,279.691040 527.380615,279.527496 530.621765,279.048218 
	C533.227112,278.662933 534.763367,279.889313 534.381836,283.094116 
	C527.166077,281.686920 521.677551,285.580780 516.643127,289.090820 
	C503.436920,298.298248 491.017029,308.652069 477.658722,317.617828 
	C463.575073,327.070465 447.861389,333.171478 431.034210,335.973846 
	C421.435822,337.572388 411.809937,338.198914 402.324768,335.080414 
	C395.092377,332.702576 393.743774,330.784485 394.541565,323.162781 
z"/>
<path fill="#2E3192" opacity="1.000000" stroke="none" 
	d="
M275.620483,320.044159 
	C275.244385,328.183258 277.004395,330.376709 285.863007,331.961487 
	C298.315735,334.189209 310.622314,333.181458 322.787384,330.015228 
	C339.450500,325.678375 355.192291,319.246735 369.112579,308.914520 
	C376.954041,303.094299 384.378754,296.677429 392.470978,291.243896 
	C397.066162,288.158447 402.536316,286.263641 407.791290,284.315002 
	C411.021454,283.117188 413.800293,284.032745 413.951782,288.693665 
	C410.758179,289.475983 406.980286,288.889221 404.500122,290.413696 
	C394.834045,296.355133 385.077423,302.348999 376.303345,309.489380 
	C366.185059,317.723663 355.036682,323.651642 343.090881,328.465210 
	C327.089569,334.913025 310.535034,338.230988 293.283966,336.885895 
	C288.523651,336.514771 283.641449,335.317719 279.224274,333.503510 
	C272.861572,330.890167 271.859192,326.484406 275.620483,320.044159 
z"/>
<path fill="#2E3192" opacity="1.000000" stroke="none" 
	d="
M293.077423,289.416199 
	C297.986328,290.379913 298.078369,291.246704 293.504211,297.930298 
	C293.193573,295.256866 293.220490,292.514496 293.077423,289.416199 
z"/>
<path fill="#2E3192" opacity="1.000000" stroke="none" 
	d="
M414.077423,289.416199 
	C418.986328,290.379913 419.078369,291.246704 414.504211,297.930298 
	C414.193573,295.256866 414.220520,292.514496 414.077423,289.416199 
z"/>
<path fill="#2E3192" opacity="1.000000" stroke="none" 
	d="
M534.734802,284.157043 
	C535.526489,284.247192 536.509155,284.653625 537.491821,285.060089 
	C536.948547,286.339966 536.405273,287.619873 535.514282,288.949890 
	C535.086304,287.491119 535.006042,285.982239 534.734802,284.157043 
z"/>
<path fill="#2E3192" opacity="1.000000" stroke="none" 
	d="
M4.601052,305.079163 
	C4.838486,305.608673 4.789052,306.261902 4.453142,306.957214 
	C4.215839,306.400482 4.265012,305.801697 4.601052,305.079163 
z"/>
<path fill="#2E3192" opacity="1.000000" stroke="none" 
	d="
M172.734833,284.157043 
	C173.526443,284.247192 174.509079,284.653656 175.491730,285.060089 
	C174.948486,286.339996 174.405258,287.619904 173.514343,288.949921 
	C173.086380,287.491119 173.006119,285.982239 172.734833,284.157043 
z"/>
</svg>